<svg width="425" height="701" viewBox="0 0 425 701" fill="none" xmlns="http://www.w3.org/2000/svg">
<g opacity="0.4">
<path d="M-231.158 305.049C-250.918 262.785 -256.728 227.597 -248.718 199.433C-240.716 171.295 -218.884 150.05 -183.082 135.738C-111.306 107.044 -44.851 85.3953 16.2828 70.7881C77.3038 56.2079 143.535 66.4894 215 101.697C286.385 136.865 332.661 199.422 353.806 289.447C364.38 334.462 365.081 374.109 355.943 408.403C346.806 442.692 327.827 471.659 298.988 495.314C241.162 542.744 190.057 581.864 145.672 612.678C101.385 643.424 47.9924 655.97 -14.5402 650.285C-45.7599 647.446 -71.7961 636.597 -92.6751 617.75C-113.559 598.899 -129.314 572.02 -139.918 537.074C-161.17 467.031 -191.585 389.689 -231.158 305.049Z" stroke="#00F0B5"/>
<path d="M-173.693 313.4C-189.733 279.079 -194.445 250.522 -187.959 227.679C-181.48 204.863 -163.794 187.631 -134.76 176.02C-76.518 152.73 -22.5952 135.161 27.01 123.309C76.5023 111.485 130.232 119.842 188.222 148.445C246.131 177.008 283.684 227.8 300.856 300.9C309.443 337.453 310.018 369.639 302.613 397.473C295.21 425.3 279.824 448.808 256.439 468.003C209.521 506.514 168.056 538.277 132.044 563.294C96.1291 588.243 52.8237 598.419 2.09246 593.792C-23.2266 591.482 -44.3385 582.672 -61.2697 567.376C-78.2057 552.075 -90.9896 530.257 -99.5979 501.883C-116.861 444.984 -141.56 382.156 -173.693 313.4Z" stroke="#00F0B5"/>
<path d="M-138.406 318.591C-152.156 289.17 -156.189 264.704 -150.634 245.142C-145.087 225.607 -129.943 210.845 -105.062 200.895C-55.1273 180.927 -8.89614 165.863 33.6322 155.703C76.0478 145.569 122.099 152.73 171.81 177.249C221.441 201.728 253.627 245.259 268.347 307.92C275.708 339.253 276.199 366.837 269.854 390.689C263.511 414.533 250.328 434.676 230.287 451.126C190.06 484.145 154.508 511.378 123.633 532.826C92.8551 554.207 55.7415 562.93 12.2574 558.963C-9.43812 556.984 -27.5248 549.436 -42.0293 536.332C-56.5385 523.224 -67.4939 504.529 -74.8722 480.209C-89.6748 431.419 -110.854 377.546 -138.406 318.591Z" stroke="#00F0B5"/>
</g>
</svg>
